<?xml version="1.0" encoding="UTF-8"?>
<svg version="1.1" xmlns="http://www.w3.org/2000/svg" width="500" height="392">
<path d="M0 0 C4.93709771 0.65309735 9.04844826 2.70876098 13.4921875 4.83203125 C14.31518341 5.22388107 15.13817932 5.6157309 15.9861145 6.01945496 C17.73095418 6.85427005 19.47415559 7.69251668 21.21582031 8.53393555 C23.82316857 9.78757885 26.4421518 11.01405215 29.0625 12.24023438 C39.60770801 17.27122239 48.56783621 22.97267772 57.38897705 30.63095093 C60.03509084 32.87962133 62.79783006 34.96174721 65.5625 37.0625 C71.82502771 41.85076286 78.02465789 46.71629229 84.21630859 51.59570312 C86.62657513 53.49330142 89.04060853 55.38607418 91.45507812 57.27832031 C92.64927754 58.2158773 93.84199494 59.15532513 95.03320312 60.09667969 C97.52558589 62.06619475 100.0210135 64.01556083 102.57421875 65.90625 C111.02622647 72.27668887 117.89100039 80.21313446 125 88 C126.53589187 89.66701024 128.07465013 91.33133158 129.61376953 92.99536133 C131.06875802 94.5692695 132.52078406 96.14587357 133.97265625 97.72265625 C137.2991995 101.32997598 140.6491271 104.91529216 144 108.5 C148.8389234 113.67696799 153.65787067 118.87148234 158.45874023 124.08374023 C161.71411506 127.61502169 164.98484726 131.13149904 168.26513672 134.63964844 C170.03693897 136.53515435 171.80572655 138.43343738 173.57421875 140.33203125 C175.81509271 142.73663941 178.06852925 145.12841201 180.33203125 147.51171875 C181.34652886 148.59098165 182.36086088 149.67040023 183.375 150.75 C184.26960937 151.69359375 185.16421875 152.6371875 186.0859375 153.609375 C188 156 188 156 188 159 C183.77014136 158.43148862 181.06143076 156.99810293 177.52734375 154.640625 C176.47281006 153.94340332 175.41827637 153.24618164 174.33178711 152.52783203 C173.20030923 151.76862748 172.06888132 151.00934844 170.9375 150.25 C169.76692364 149.47294194 168.59577478 148.69674564 167.42407227 147.92138672 C165.06182064 146.35736529 162.70191915 144.78989593 160.34375 143.21972656 C155.73141882 140.15262502 151.08610027 137.13674967 146.4375 134.125 C144.81507325 133.07166221 143.19267672 132.01827785 141.5703125 130.96484375 C140.04687799 129.97655789 138.52344061 128.98827645 137 128 C136.30745117 127.55027832 135.61490234 127.10055664 134.90136719 126.63720703 C122.73037116 118.73453199 110.5069121 110.9143688 98.28027344 103.09814453 C95.02163401 101.01383765 91.76447694 98.92723492 88.5078125 96.83984375 C75.37916873 88.42503272 75.37916873 88.42503272 62.20947266 80.07470703 C60.63599256 79.08202668 59.06399978 78.08698407 57.49365234 77.08935547 C54.0117051 74.87964358 50.5199192 72.70362711 46.96484375 70.61328125 C39.38776968 66.10114583 34.44428333 61.74134386 30 54 C29.16313185 52.60888269 28.32299026 51.21973194 27.48046875 49.83203125 C25.46368904 46.49990027 23.46548556 43.15741949 21.4765625 39.80859375 C16.8496897 32.04428377 12.09032835 24.36147408 7.34399414 16.66992188 C6.36740845 15.08727539 6.36740845 15.08727539 5.37109375 13.47265625 C4.79286865 12.53687744 4.21464355 11.60109863 3.61889648 10.63696289 C3.08466064 9.76676514 2.5504248 8.89656738 2 8 C1.41484619 7.12400146 0.82969238 6.24800293 0.22680664 5.34545898 C-0.17803955 4.57145752 -0.58288574 3.79745605 -1 3 C-0.67 2.01 -0.34 1.02 0 0 Z " fill="#7C3FF6" transform="translate(62,7)"/>
<path d="M0 0 C8.71126941 2.58327499 16.75464583 6.48793383 24.9375 10.375 C26.35330997 11.04210331 27.76932439 11.70877289 29.18554688 12.375 C32.54088597 13.95611479 35.88976522 15.55020523 39.23419189 17.15426636 C40.82444 17.91591555 42.41765704 18.67135842 44.01123047 19.42602539 C48.8892644 21.78357397 53.03675372 24.27972727 57.25 27.6875 C58.36553112 28.5737036 59.48277553 29.45775405 60.6015625 30.33984375 C61.44509277 31.00669189 61.44509277 31.00669189 62.30566406 31.68701172 C65.02042565 33.79075636 67.81874073 35.77087431 70.625 37.75 C76.2162062 41.70517888 81.74347685 45.74028069 87.25 49.8125 C93.47320364 54.41296313 99.71852943 58.979412 106 63.5 C112.9941077 68.53419513 119.94037093 73.62994148 126.87036133 78.75195312 C133.16850584 83.40137211 139.50466652 87.99616986 145.86328125 92.5625 C150.62037342 95.98333032 155.32523229 99.46750093 160 103 C159.67 103.99 159.34 104.98 159 106 C154.17737098 104.49557293 149.65842281 102.5877721 145.0703125 100.5 C144.29983078 100.1522905 143.52934906 99.80458099 142.73551941 99.44633484 C140.19745957 98.30023496 137.66125507 97.15008749 135.125 96 C133.33762444 95.19215278 131.55010575 94.38462218 129.76245117 93.57739258 C126.03980348 91.8960947 122.3177791 90.21342801 118.59619141 88.52978516 C110.6786329 84.94907374 102.75395817 81.38419398 94.82910156 77.81967163 C92.31942234 76.69061423 89.81006193 75.56085103 87.30078125 74.4309082 C79.6700728 70.99541714 72.03673153 67.56610978 64.39453125 64.15625 C63.06013512 63.5603136 61.72574371 62.96436663 60.39135742 62.3684082 C57.97985667 61.29151416 55.56713468 60.21752776 53.15356445 59.14526367 C51.05562013 58.20878585 48.96149578 57.26368323 46.87207031 56.30834961 C45.00747302 55.45894661 43.13207581 54.63272439 41.24511719 53.83422852 C34.72942957 50.91760678 31.12227195 47.32758721 27 41.5625 C26.40533936 40.76481201 25.81067871 39.96712402 25.19799805 39.14526367 C23.44293047 36.77891497 21.71747892 34.39372025 20 32 C19.53029785 31.35224609 19.0605957 30.70449219 18.57666016 30.03710938 C16.51727804 27.19690065 14.4808715 24.34261082 12.46875 21.46875 C10.6659124 18.90682289 8.80224733 16.40000019 6.90625 13.90625 C6.13317505 12.88180786 6.13317505 12.88180786 5.34448242 11.83666992 C4.34252279 10.51280581 3.33255317 9.19495643 2.3137207 7.8840332 C1.1304111 6.31232038 0.05459206 4.66082461 -1 3 C-0.67 2.01 -0.34 1.02 0 0 Z " fill="#7E42F6" transform="translate(114,96)"/>
<path d="M0 0 C2.71894541 0.75672914 5.04881729 1.90363564 7.6015625 3.109375 C19.02101266 8.0752084 30.20729325 9.57728251 42.4765625 10.921875 C44.34002013 11.1384618 46.20330376 11.35655112 48.06640625 11.57617188 C52.57631114 12.10454232 57.08806537 12.61266672 61.6015625 13.109375 C61.6015625 14.429375 61.6015625 15.749375 61.6015625 17.109375 C59.48591569 18.1124851 57.3700344 19.1150935 55.25390625 20.1171875 C54.58413757 20.43436234 53.9143689 20.75153717 53.2243042 21.07832336 C49.44040475 22.86823152 45.65319931 24.65072256 41.8605957 26.42211914 C41.07614578 26.78855026 40.29169586 27.15498138 39.48347473 27.53251648 C37.874671 28.28394685 36.26577289 29.03517516 34.65678406 29.78620911 C30.29055783 31.82996694 25.94614343 33.9099146 21.62397766 36.04519653 C2.91820583 45.26452938 -15.66798429 50.82416761 -36.04589844 55.16113281 C-39.07613784 55.81043299 -42.09093403 56.50642308 -45.10253906 57.23730469 C-45.8710318 57.42340302 -46.63952454 57.60950134 -47.43130493 57.80123901 C-48.89255787 58.1576629 -50.35274709 58.51848836 -51.81161499 58.884552 C-55.41439088 59.76037677 -58.68780854 60.31138117 -62.3984375 60.109375 C-62.3984375 56.109375 -62.3984375 56.109375 -59.71484375 53.21875 C-58.4730641 52.08840776 -57.22091688 50.96939403 -55.9609375 49.859375 C-54.57360482 48.60223969 -53.18690973 47.34440045 -51.80078125 46.0859375 C-51.07487793 45.43270508 -50.34897461 44.77947266 -49.60107422 44.10644531 C-46.02746075 40.86634797 -42.52796996 37.54880214 -39.0234375 34.234375 C-37.59657631 32.89038912 -36.16949104 31.5466411 -34.7421875 30.203125 C-31.06297942 26.73681866 -27.38670463 23.26741875 -23.71264648 19.7956543 C-22.26845655 18.43585775 -20.82012731 17.08044226 -19.36743164 15.72973633 C-16.2371206 12.8173514 -13.16048678 9.89971328 -10.23828125 6.77734375 C-3.81560503 0.17400153 -3.81560503 0.17400153 0 0 Z " fill="#8145F8" transform="translate(184.3984375,227.890625)"/>
<path d="M0 0 C0.74096976 4.05495223 1.47103776 8.11170262 2.19116211 12.17041016 C2.43753734 13.55017623 2.68685878 14.92941966 2.93920898 16.30810547 C3.30190066 18.29253687 3.65304659 20.27906749 4.00390625 22.265625 C4.32597046 24.05661621 4.32597046 24.05661621 4.65454102 25.88378906 C4.97087821 28.73730708 5.05839925 30.37266659 4 33 C2.27998357 35.07628469 0.55454244 37.00301963 -1.3125 38.9375 C-2.41164411 40.10138708 -3.51059715 41.26545464 -4.609375 42.4296875 C-5.17333984 43.02233398 -5.73730469 43.61498047 -6.31835938 44.22558594 C-8.92768162 46.97886034 -11.49442002 49.77081522 -14.0625 52.5625 C-15.05587512 53.63942851 -16.04936442 54.71625171 -17.04296875 55.79296875 C-17.77459229 56.58646729 -17.77459229 56.58646729 -18.52099609 57.39599609 C-19.51323493 58.47209533 -20.50575144 59.54793859 -21.49853516 60.62353516 C-22.95865362 62.20616766 -24.41704448 63.79037501 -25.875 65.375 C-27.13957031 66.74785156 -27.13957031 66.74785156 -28.4296875 68.1484375 C-29.74684027 69.6097164 -31.06059663 71.08130161 -32.23625183 72.65866089 C-36.20210413 77.83086895 -40.30660426 79.97605655 -46.30859375 82.296875 C-47.19354019 82.65718811 -48.07848663 83.01750122 -48.99024963 83.38873291 C-51.79897263 84.52761644 -54.61756442 85.63921137 -57.4375 86.75 C-59.32690103 87.50990831 -61.21558129 88.27161132 -63.10351562 89.03515625 C-67.34091078 90.74655336 -71.58561002 92.43846397 -75.8354187 94.11877441 C-77.88250373 94.95216594 -79.89238505 95.84535948 -81.90649414 96.75488281 C-85.2237457 98.09005627 -86.65866149 98.1137795 -90 97 C-90 96.34 -90 95.68 -90 95 C-87.9726835 93.276629 -85.93468615 91.6618929 -83.8125 90.0625 C-78.93907155 86.31828058 -74.16097214 82.50574869 -69.5 78.5 C-64.3887974 74.12087888 -59.16066731 69.9176685 -53.84375 65.79101562 C-53.29847656 65.36755859 -52.75320313 64.94410156 -52.19140625 64.5078125 C-51.71904541 64.14316895 -51.24668457 63.77852539 -50.76000977 63.40283203 C-49.88880493 62.70843018 -49.88880493 62.70843018 -49 62 C-48.0203125 61.29214355 -47.040625 60.58428711 -46.03125 59.85498047 C-42.36367967 56.77563048 -40.96984035 53.21546478 -39.30859375 48.8125 C-38.99600113 48.03237549 -38.68340851 47.25225098 -38.36134338 46.44848633 C-37.37034774 43.97177917 -36.40191615 41.48716579 -35.4375 39 C-34.46804629 36.51352852 -33.49349461 34.02966179 -32.50294495 31.55151367 C-31.88915774 30.0150076 -31.28732141 28.47365433 -30.6995697 26.92700195 C-28.18204298 20.6079507 -24.33465409 16.85634663 -18.93359375 12.7734375 C-18.20076172 12.2165625 -17.46792969 11.6596875 -16.71289062 11.0859375 C-15.96201172 10.52132812 -15.21113281 9.95671875 -14.4375 9.375 C-13.30538086 8.51648438 -13.30538086 8.51648438 -12.15039062 7.640625 C-10.10336052 6.08957135 -8.05304212 4.54308376 -6 3 C-5.30011963 2.44393066 -4.60023926 1.88786133 -3.87915039 1.31494141 C-2 0 -2 0 0 0 Z " fill="#7638F2" transform="translate(343,215)"/>
<path d="M0 0 C5.27549498 1.60241859 9.08025541 4.98739471 13.3125 8.375 C14.91622988 9.63336936 16.52040606 10.89117012 18.125 12.1484375 C20.53133693 14.04419418 22.93222925 15.94554951 25.3203125 17.86425781 C27.47249984 19.59181934 29.64073321 21.29716349 31.8125 23 C32.46323486 23.53415527 33.11396973 24.06831055 33.78442383 24.61865234 C35.81479887 26.26223036 35.81479887 26.26223036 39 28 C42.88888085 26.91036189 46.01694319 24.81906285 49.3515625 22.5859375 C50.36863281 21.90660156 51.38570313 21.22726563 52.43359375 20.52734375 C53.48675781 19.81707031 54.53992188 19.10679687 55.625 18.375 C56.65496094 17.68792969 57.68492187 17.00085938 58.74609375 16.29296875 C64.88159096 12.17948446 70.83035009 7.92500388 76.63818359 3.35791016 C79 2 79 2 81.31103516 2.28662109 C81.86839355 2.52203613 82.42575195 2.75745117 83 3 C81.48986846 7.88406321 79.52200079 12.41004165 77.359375 17.02734375 C77.00013947 17.80150635 76.64090393 18.57566895 76.27078247 19.37329102 C75.49970424 21.03446285 74.72725251 22.69499772 73.95355225 24.35494995 C71.91788613 28.72302756 69.89264634 33.09593217 67.8671875 37.46875 C67.45844391 38.35070541 67.04970032 39.23266083 66.62857056 40.14134216 C62.65885038 48.71671908 58.75518296 57.32130236 54.875 65.9375 C54.5718689 66.61038055 54.26873779 67.28326111 53.9564209 67.97653198 C52.30196546 71.64998292 50.64978642 75.32444994 49 79 C45.52454122 76.25170407 44.3208305 72.39199651 42.7421875 68.40234375 C42.11015333 66.86231055 41.47731375 65.32260769 40.84375 63.78320312 C39.86099222 61.37335039 38.88456286 58.96154692 37.92285156 56.54321289 C33.8791424 46.41829095 29.90165221 38.74133155 22 31 C20.1540043 28.80591721 18.42194305 26.53280245 16.6875 24.25 C13.7582342 20.43653776 10.7798129 16.70446032 7.59765625 13.09765625 C7.03925049 12.46375977 6.48084473 11.82986328 5.90551758 11.17675781 C4.81911845 9.95337722 3.72412803 8.73756134 2.61987305 7.53027344 C1.33690994 6.08447841 0.15740654 4.54813685 -1 3 C-0.67 2.01 -0.34 1.02 0 0 Z " fill="#7637F2" transform="translate(248,148)"/>
<path d="M0 0 C8.22690911 2.40378545 15.75684748 6.05215395 23.46185303 9.74765015 C26.67401977 11.28817739 29.89160776 12.81722233 33.10894775 14.34690857 C34.74214914 15.12349817 36.37508387 15.9006488 38.00775146 16.67835999 C45.10957952 20.05969248 52.23620982 23.38483292 59.375 26.6875 C61.6119914 27.72393193 63.84897053 28.76039034 66.0859375 29.796875 C67.2006543 30.31314453 68.31537109 30.82941406 69.46386719 31.36132812 C75.32464236 34.07725763 81.18315685 36.79800437 87.03887939 39.52481079 C88.31848489 40.12032854 89.59837906 40.7152265 90.87860107 41.30941772 C98.98842866 45.07373636 107.02603628 48.9555136 115 53 C115 53.99 115 54.98 115 56 C104.49148349 54.57732806 94.06124859 52.84419251 83.62109375 50.99609375 C81.99401448 50.70970543 80.36690304 50.42349988 78.73976135 50.13746643 C75.36036562 49.54294923 71.98122621 48.94700464 68.60229492 48.34985352 C64.27870505 47.5857642 59.95468176 46.82416309 55.63049221 46.06347561 C51.48138263 45.33349531 47.33247612 44.60236416 43.18359375 43.87109375 C42.39873533 43.73284117 41.61387691 43.59458858 40.80523491 43.45214653 C38.58285395 43.06044389 36.3606178 42.66793049 34.13842773 42.27514648 C32.87715561 42.0524559 31.61588348 41.82976532 30.31639099 41.60032654 C29.22198196 41.40221878 28.12757294 41.20411102 27 41 C26.0674791 40.85666733 25.13495819 40.71333466 24.17417908 40.56565857 C20.78281027 39.6833224 20.00058454 37.54895955 18.2578125 34.6015625 C17.24654297 32.92126953 17.24654297 32.92126953 16.21484375 31.20703125 C15.51768142 30.01334057 14.82106908 28.81932851 14.125 27.625 C13.43771187 26.46915052 12.74892249 25.31419231 12.05859375 24.16015625 C10.69883357 21.88352921 9.34620146 19.60262861 8.00097656 17.31738281 C5.5145269 13.19514293 2.85781797 9.1985012 0.14794922 5.22021484 C-0.23087402 4.48754395 -0.60969727 3.75487305 -1 3 C-0.67 2.01 -0.34 1.02 0 0 Z " fill="#7F43F6" transform="translate(159,160)"/>
<path d="M0 0 C0.11522956 12.38077633 -0.10412395 24.6497088 -1 37 C-5.99304919 38.36048505 -10.99339019 39.69033976 -16 41 C-17.16789062 41.30808594 -18.33578125 41.61617188 -19.5390625 41.93359375 C-20.61929688 42.20300781 -21.69953125 42.47242188 -22.8125 42.75 C-23.76769531 42.99234375 -24.72289062 43.2346875 -25.70703125 43.484375 C-35.69324561 45.04805269 -44.43182919 42.99259792 -54.125 40.5 C-55.47629489 40.16168973 -56.82785633 39.82444226 -58.1796875 39.48828125 C-61.45589006 38.66923061 -64.72901432 37.83959765 -68 37 C-68.33 35.68 -68.66 34.36 -69 33 C-58.26805503 27.60582561 -47.49975198 22.29374428 -36.6875 17.0625 C-35.9764209 16.71815918 -35.2653418 16.37381836 -34.53271484 16.01904297 C-25.86627239 11.82284443 -17.19583969 7.63501844 -8.5 3.5 C-7.34504028 2.94904663 -7.34504028 2.94904663 -6.16674805 2.38696289 C-1.12126587 0 -1.12126587 0 0 0 Z " fill="#7D41F6" transform="translate(262,245)"/>
<path d="M0 0 C3.03025195 0.59496965 4.94825316 1.47767128 7.37109375 3.37890625 C8.33994507 4.13022827 8.33994507 4.13022827 9.32836914 4.89672852 C10.02438232 5.44643311 10.72039551 5.9961377 11.4375 6.5625 C12.96582227 7.7504164 14.49448375 8.93789648 16.0234375 10.125 C16.83135742 10.75535156 17.63927734 11.38570312 18.47167969 12.03515625 C22.81196966 15.40814328 27.18810542 18.73393952 31.5625 22.0625 C32.45573975 22.74320557 33.34897949 23.42391113 34.26928711 24.12524414 C39.49633545 28.10582412 44.73822473 32.06546474 50 36 C60.61195575 43.93527337 71.13204062 51.99155651 81.66308594 60.03369141 C91.37626192 67.45053613 101.10166429 74.85002209 110.875 82.1875 C111.68912354 82.79924072 112.50324707 83.41098145 113.34204102 84.04125977 C114.11346436 84.61932373 114.8848877 85.1973877 115.6796875 85.79296875 C116.41791748 86.35137451 117.15614746 86.90978027 117.91674805 87.48510742 C119.92358164 88.98859722 119.92358164 88.98859722 121.84301758 90.1184082 C127.98111695 93.90895074 131.19297137 99.79700112 134.9375 105.8125 C135.62134766 106.88693359 136.30519531 107.96136719 137.00976562 109.06835938 C138.68539927 111.70484588 140.34821019 114.3485349 142 117 C141.01 117.99 140.02 118.98 139 120 C127.04535105 110.98344666 115.21263679 101.86132295 103.6484375 92.34863281 C101.38880842 90.49996708 99.10148965 88.68711681 96.8125 86.875 C87.1812566 79.18929992 77.89253189 71.07129604 68.546875 63.04296875 C66.16616839 60.99832321 63.78047191 58.95973474 61.390625 56.92578125 C54.97838891 51.46244108 48.65921946 45.92763113 42.44921875 40.234375 C39.67423544 37.70281128 36.85229577 35.2314386 34.015625 32.76953125 C31.71392236 30.74885044 29.45235621 28.68687382 27.1875 26.625 C23.72469918 23.49577173 20.19320997 20.49499651 16.5625 17.5625 C12.57753955 14.32329643 8.65423333 11.03203224 4.8125 7.625 C3.89082031 6.81289063 2.96914062 6.00078125 2.01953125 5.1640625 C0 3 0 3 0 0 Z " fill="#8148F4" transform="translate(135,32)"/>
<path d="M0 0 C0.99 0.33 1.98 0.66 3 1 C1.40079613 5.18176914 -1.68872849 7.76733986 -4.9375 10.6875 C-5.52015625 11.21859375 -6.1028125 11.7496875 -6.703125 12.296875 C-11.03527158 16.21373956 -15.49939419 19.93279611 -20.09765625 23.53491211 C-23.03166995 25.91443458 -23.03166995 25.91443458 -25.39428711 28.66894531 C-35.49104547 39.56587246 -48.43830252 43.62915516 -62.15539551 48.55877686 C-64.72156201 49.48887465 -67.27658861 50.44760295 -69.83170414 51.40756607 C-75.11099169 53.38940573 -80.3984963 55.35040125 -85.70336914 57.26269531 C-86.63234512 57.5995636 -87.56132111 57.93643188 -88.51844788 58.2835083 C-91 59 -91 59 -95 59 C-94.40632315 55.57486838 -93.2256807 53.78741173 -90.89453125 51.23828125 C-89.94634521 50.19341553 -89.94634521 50.19341553 -88.97900391 49.12744141 C-87.99939697 48.07435791 -87.99939697 48.07435791 -87 47 C-86.39978027 46.3507959 -85.79956055 45.7015918 -85.18115234 45.03271484 C-82.703633 42.37182536 -80.20615957 39.73076078 -77.69555664 37.10107422 C-74.76598246 34.01750085 -71.89925808 30.95710291 -69.296875 27.58984375 C-65.08370521 22.29547973 -62.26518839 19.469412 -55.4375 18.4375 C-51.69853872 18.13293295 -47.98846803 17.9997605 -44.23828125 17.921875 C-28.99356478 17.02600528 -14.97203577 9.57330981 -2.33886719 1.24584961 C-1.56704102 0.83471924 -0.79521484 0.42358887 0 0 Z " fill="#925CFD" transform="translate(154,317)"/>
<path d="M0 0 C0.99 0 1.98 0 3 0 C4.01099317 3.81926486 5.00723111 7.64206426 5.99072266 11.46850586 C6.4901937 13.39958638 7.00084731 15.3277635 7.51171875 17.25585938 C10.25910698 27.99310114 10.6907543 35.99183612 7.9375 46.6875 C7.75767578 47.50283203 7.57785156 48.31816406 7.39257812 49.15820312 C5.79493542 55.43212066 3.25423957 58.35401029 -2 62 C-3.12208862 62.80642944 -3.12208862 62.80642944 -4.2668457 63.62915039 C-6.69839193 65.34849304 -9.15582003 67.02273257 -11.625 68.6875 C-12.45773437 69.25533203 -13.29046875 69.82316406 -14.1484375 70.40820312 C-18.03819895 73.04989621 -21.92594448 75.64702507 -26 78 C-27.37457819 75.77890378 -28.09575946 74.58027445 -27.66241455 71.95433044 C-27.3861322 71.22746536 -27.10984985 70.50060028 -26.82519531 69.75170898 C-26.51664612 68.91734314 -26.20809692 68.08297729 -25.89019775 67.22332764 C-25.53971375 66.32334045 -25.18922974 65.42335327 -24.828125 64.49609375 C-24.47457947 63.55252014 -24.12103394 62.60894653 -23.7567749 61.63677979 C-22.60205897 58.56477354 -21.42628035 55.50130623 -20.25 52.4375 C-19.4581818 50.34340388 -18.66781859 48.24875703 -17.87890625 46.15356445 C-16.3161509 42.00792179 -14.74606629 37.86517921 -13.16992188 33.72460938 C-11.3067854 28.82215287 -9.4757623 23.90891105 -7.671875 18.984375 C-7.43527161 18.3390834 -7.19866821 17.69379181 -6.95489502 17.02894592 C-5.89583044 14.13825656 -4.83893789 11.24677492 -3.78222656 8.35522461 C-3.4209668 7.37561768 -3.05970703 6.39601074 -2.6875 5.38671875 C-2.38199219 4.55358154 -2.07648438 3.72044434 -1.76171875 2.86206055 C-1 1 -1 1 0 0 Z " fill="#7232F0" transform="translate(337,150)"/>
<path d="M0 0 C0.86794189 0.32218506 0.86794189 0.32218506 1.75341797 0.65087891 C0.47737638 3.40275202 -0.8913114 5.59604856 -2.89892578 7.86572266 C-3.68493164 8.76194336 -3.68493164 8.76194336 -4.48681641 9.67626953 C-5.32696289 10.62276367 -5.32696289 10.62276367 -6.18408203 11.58837891 C-7.36042733 12.93033259 -8.53619835 14.27278988 -9.71142578 15.61572266 C-10.30294434 16.28974121 -10.89446289 16.96375977 -11.50390625 17.65820312 C-14.10815141 20.63604692 -16.68363869 23.63746531 -19.24658203 26.65087891 C-20.09220703 27.64087891 -20.93783203 28.63087891 -21.80908203 29.65087891 C-27.00703205 36.04835585 -30.45443697 41.87279218 -33.45361328 49.52197266 C-33.82387131 50.44430191 -34.19412933 51.36663116 -34.5756073 52.31690979 C-35.74562432 55.23728553 -36.90252225 58.16265124 -38.05908203 61.08837891 C-38.8544419 63.08026061 -39.65065737 65.0718009 -40.44775391 67.06298828 C-42.39060907 71.92171385 -44.32274636 76.78459341 -46.24658203 81.65087891 C-47.23658203 81.65087891 -48.22658203 81.65087891 -49.24658203 81.65087891 C-49.29787713 72.43433403 -49.31080666 63.21964788 -49.2563324 54.00311279 C-49.23701787 49.96030507 -49.2791821 45.9304967 -49.41064453 41.88916016 C-49.42029265 40.43474409 -49.42835112 38.98031568 -49.43408203 37.52587891 C-49.46888672 36.34767578 -49.50369141 35.16947266 -49.53955078 33.95556641 C-47.32425365 28.29350788 -42.21900089 25.85353024 -37.24658203 22.65087891 C-35.66478149 21.59634521 -35.66478149 21.59634521 -34.05102539 20.52050781 C-30.75614847 18.33184417 -27.44222718 16.17521383 -24.12158203 14.02587891 C-21.88920766 12.57628516 -19.65780185 11.12520668 -17.42626953 9.67431641 C-16.3727832 8.9946582 -15.31929688 8.315 -14.23388672 7.61474609 C-12.32738034 6.36140045 -10.43996074 5.07818075 -8.57958984 3.75732422 C-7.79165039 3.19883789 -7.00371094 2.64035156 -6.19189453 2.06494141 C-5.51916504 1.57203613 -4.84643555 1.07913086 -4.15332031 0.57128906 C-2.24658203 -0.34912109 -2.24658203 -0.34912109 0 0 Z " fill="#7030EE" transform="translate(418.24658203125,151.34912109375)"/>
<path d="M0 0 C-1.40664419 3.43408246 -2.84727062 4.85419551 -6.015625 6.7421875 C-7.25916748 7.49580566 -7.25916748 7.49580566 -8.52783203 8.26464844 C-9.42614746 8.79606445 -10.32446289 9.32748047 -11.25 9.875 C-13.14938885 11.02186339 -15.04779303 12.17035881 -16.9453125 13.3203125 C-17.9343457 13.9174707 -18.92337891 14.51462891 -19.94238281 15.12988281 C-26.01960334 18.84686694 -31.99448518 22.72711513 -37.97753906 26.59326172 C-38.8537793 27.1554541 -39.73001953 27.71764648 -40.6328125 28.296875 C-41.40512207 28.79541992 -42.17743164 29.29396484 -42.97314453 29.80761719 C-46.9320772 32.13662552 -50.56364741 32.25899882 -55.07421875 32.53515625 C-55.7580513 32.57813339 -56.44188385 32.62111053 -57.1464386 32.66539001 C-59.32657778 32.80153681 -61.50701096 32.93208855 -63.6875 33.0625 C-65.16734054 33.15392809 -66.64715861 33.24572066 -68.12695312 33.33789062 C-71.75105107 33.56282069 -75.37543355 33.78273474 -79 34 C-75.54997715 25.05026967 -70.77389958 15.89933113 -63 10 C-58.06676103 8.27554119 -53.15523853 8.36931315 -47.97827148 8.38476562 C-36.00620462 8.36434564 -25.44050376 5.29599528 -14.03417969 2.00732422 C-12.96673775 1.70297203 -12.96673775 1.70297203 -11.87773132 1.39247131 C-9.93140698 0.83379147 -7.99005228 0.25788152 -6.04907227 -0.3190918 C-3 -1 -3 -1 0 0 Z " fill="#8E56FC" transform="translate(173,299)"/>
<path d="M0 0 C-0.26965332 1.88896179 -0.26965332 1.88896179 -1 4 C-2.59069824 5.02546692 -2.59069824 5.02546692 -4.68554688 5.77661133 C-5.87051506 6.21484222 -5.87051506 6.21484222 -7.079422 6.66192627 C-7.95040024 6.96556091 -8.82137848 7.26919556 -9.71875 7.58203125 C-10.6281987 7.9134613 -11.5376474 8.24489136 -12.47465515 8.58636475 C-15.47786896 9.67688743 -18.48863522 10.7447139 -21.5 11.8125 C-23.57386404 12.56027031 -25.64718343 13.30955282 -27.7199707 14.06030273 C-32.0016842 15.60924222 -36.28622695 17.1499817 -40.57275391 18.68554688 C-46.75369495 20.90457946 -52.91619563 23.1713824 -59.07421875 25.453125 C-60.96611375 26.15267466 -62.85804014 26.85213944 -64.75 27.55151367 C-67.45836689 28.55277391 -70.16647315 29.55469544 -72.87353516 30.55947876 C-75.36580497 31.4831719 -77.86029338 32.40059636 -80.35546875 33.31640625 C-81.09085373 33.59055359 -81.82623871 33.86470093 -82.58390808 34.14715576 C-85.53104759 35.22343993 -87.83549103 36 -91 36 C-93.31 30.72 -95.62 25.44 -98 20 C-95.00951975 17.00951975 -91.30994586 16.87698783 -87.28344727 16.12060547 C-86.38089203 15.94474915 -85.47833679 15.76889282 -84.5484314 15.58770752 C-81.55582736 15.00665295 -78.56120915 14.43679128 -75.56640625 13.8671875 C-73.4912533 13.46707915 -71.41621699 13.06636534 -69.34129333 12.66506958 C-64.9884352 11.82486394 -60.63463586 10.98978695 -56.2800293 10.15869141 C-50.69189243 9.09207607 -45.10557405 8.01628712 -39.51985264 6.93710136 C-35.23359921 6.10941459 -30.94675175 5.28484277 -26.65968132 4.46139908 C-24.59943887 4.06563087 -22.53930489 3.66929758 -20.47928047 3.27239609 C-17.60205017 2.71888974 -14.72412585 2.16915659 -11.84594727 1.62060547 C-10.9902565 1.45543427 -10.13456573 1.29026306 -9.25294495 1.12008667 C-6.12532008 0.52722686 -3.19121764 0 0 0 Z " fill="#6C2CEC" transform="translate(500,109)"/>
<path d="M0 0 C2.375 1.5625 2.375 1.5625 4 4 C4.51470588 9.97058824 4.51470588 9.97058824 3 13 C7.34729234 11.38240285 9.24502929 9.90873655 11.3125 5.875 C13.35507048 2.40072125 13.59368074 2.1083518 17.75 1 C19.49942891 0.95529568 21.25034346 0.96533045 23 1 C24.45444907 0.99143434 25.90887995 0.97941567 27.36328125 0.96484375 C31.57645251 0.933179 35.7869671 0.95646694 40 1 C40.495 2.485 40.495 2.485 41 4 C36.73817768 8.3115742 32.46958903 12.61629644 28.19482422 16.91503906 C26.74409013 18.37577822 25.29516259 19.83831401 23.84814453 21.30273438 C21.75775713 23.41761288 19.66077532 25.52576314 17.5625 27.6328125 C16.60730469 28.60349167 16.60730469 28.60349167 15.6328125 29.59378052 C11.37988605 33.84774312 6.90444811 37.51862039 2 41 C0.79828199 37.23354751 -0.38390586 33.46124618 -1.5625 29.6875 C-1.90474609 28.61564453 -2.24699219 27.54378906 -2.59960938 26.43945312 C-2.91865234 25.41142578 -3.23769531 24.38339844 -3.56640625 23.32421875 C-3.86490479 22.37635498 -4.16340332 21.42849121 -4.47094727 20.4519043 C-5 18 -5 18 -4 15 C-4.804375 14.525625 -5.60875 14.05125 -6.4375 13.5625 C-9 12 -9 12 -10 11 C-10.36395977 7.14202645 -10.56007535 4.84011302 -8.375 1.5625 C-5.28314769 -0.47161336 -3.63632575 -0.60605429 0 0 Z " fill="#6F2FEE" transform="translate(352,140)"/>
<path d="M0 0 C1.38719614 0.40259213 2.77528598 0.80211253 4.1640625 1.19921875 C8.15375527 2.37072836 12.10549329 3.53780254 16 5 C16.495 5.99 16.495 5.99 17 7 C16.35264893 7.38631592 15.70529785 7.77263184 15.03833008 8.1706543 C1.69345067 16.14039843 -11.60078161 24.17628493 -24.796875 32.390625 C-25.53397705 32.84719482 -26.2710791 33.30376465 -27.03051758 33.77416992 C-28.67285148 34.79637874 -30.30460021 35.83556951 -31.93359375 36.87890625 C-34 38 -34 38 -36.3125 37.6875 C-36.869375 37.460625 -37.42625 37.23375 -38 37 C-33.63894674 23.20084639 -28.5050294 13.02728964 -17 4 C-15.8116683 2.75079065 -14.62404355 1.50090794 -13.4375 0.25 C-9.01897084 -3.41136336 -5.05305136 -1.63022608 0 0 Z " fill="#7335F0" transform="translate(320,126)"/>
<path d="M0 0 C1.35019981 0.33294067 1.35019981 0.33294067 2.72767639 0.67260742 C5.5821167 1.37831473 8.43360466 2.09521936 11.28515625 2.8125 C13.22833103 3.29501486 15.17168876 3.77679355 17.11523438 4.2578125 C21.86153482 5.43419889 26.6052212 6.62063075 31.34765625 7.8125 C31.34765625 9.1325 31.34765625 10.4525 31.34765625 11.8125 C26.63622328 12.69945238 21.92238824 13.57173322 17.20581055 14.4309082 C15.60384284 14.72480425 14.00258503 15.02259898 12.40209961 15.32446289 C10.09277079 15.75930383 7.78119709 16.17975693 5.46875 16.59765625 C4.7611705 16.73406021 4.053591 16.87046417 3.3245697 17.01100159 C-4.03575597 18.31170957 -10.27675769 16.78465795 -17.3359375 14.74609375 C-18.0363063 14.54774429 -18.73667511 14.34939484 -19.45826721 14.14503479 C-21.67002692 13.51760397 -23.87993538 12.88391698 -26.08984375 12.25 C-27.59949088 11.82054678 -29.1092555 11.39150634 -30.61914062 10.96289062 C-34.29824986 9.91752535 -37.97571365 8.86654987 -41.65234375 7.8125 C-41.65234375 6.4925 -41.65234375 5.1725 -41.65234375 3.8125 C-37.63473684 2.79922765 -33.61280545 1.80427957 -29.58984375 0.8125 C-27.88924805 0.38324219 -27.88924805 0.38324219 -26.15429688 -0.0546875 C-25.04892578 -0.32539062 -23.94355469 -0.59609375 -22.8046875 -0.875 C-21.28862915 -1.25205078 -21.28862915 -1.25205078 -19.74194336 -1.63671875 C-12.71692235 -2.88906544 -6.78812452 -1.72513809 0 0 Z " fill="#6F2FEE" transform="translate(362.65234375,110.1875)"/>
<path d="M0 0 C0.52706543 0.26901123 1.05413086 0.53802246 1.59716797 0.81518555 C0.49800156 5.37764722 -0.63516526 9.92977959 -1.80419922 14.47485352 C-2.19921273 16.01914369 -2.58802345 17.56503549 -2.97021484 19.11254883 C-5.22266172 28.1515131 -7.30025301 35.39910116 -14.40283203 41.81518555 C-15.8290221 43.23338576 -17.25482625 44.65201154 -18.671875 46.0793457 C-20.08591569 47.49804858 -21.51742054 48.89928046 -22.94970703 50.29956055 C-24.98500218 52.38671035 -26.73373492 54.43394033 -28.40283203 56.81518555 C-29.72283203 56.48518555 -31.04283203 56.15518555 -32.40283203 55.81518555 C-33.74650899 44.85943743 -34.46275241 32.97153639 -27.62451172 23.72485352 C-24.19609361 19.54141652 -20.43685848 15.7347891 -16.52783203 12.00268555 C-15.87874878 11.37833618 -15.22966553 10.75398682 -14.56091309 10.11071777 C-12.68124462 8.33022099 -10.77701053 6.58513932 -8.84814453 4.8581543 C-8.26253754 4.32935165 -7.67693054 3.80054901 -7.07357788 3.25572205 C-2.97873011 -0.2291098 -2.97873011 -0.2291098 0 0 Z " fill="#793CF4" transform="translate(300.40283203125,227.184814453125)"/>
<path d="M0 0 C-0.57991413 3.36937448 -1.60349679 4.96552427 -4.0625 7.3125 C-4.69414062 7.91835938 -5.32578125 8.52421875 -5.9765625 9.1484375 C-8.56372868 11.51584439 -11.20187104 13.8155995 -13.87988281 16.07958984 C-16.00481367 17.92433447 -16.00481367 17.92433447 -17.66552734 19.9375 C-23.3285213 26.47331946 -29.493524 28.38067207 -37.6875 30.5625 C-39.50217773 31.09327148 -39.50217773 31.09327148 -41.35351562 31.63476562 C-51.06040926 34.36600325 -51.06040926 34.36600325 -56 33 C-52.99349823 24.29696857 -47.02504338 13.30277887 -39.23046875 8.1796875 C-36.5931365 7.37874665 -34.02265934 6.85408424 -31.30078125 6.43847656 C-28.31154736 5.86879659 -25.42702597 5.04259249 -22.5 4.2109375 C-20.74743896 3.71339966 -20.74743896 3.71339966 -18.95947266 3.20581055 C-17.77659668 2.86976807 -16.5937207 2.53372559 -15.375 2.1875 C-13.09415842 1.54519404 -10.81043819 0.91298736 -8.5234375 0.29296875 C-7.53263184 0.0199292 -6.54182617 -0.25311035 -5.52099609 -0.53442383 C-3 -1 -3 -1 0 0 Z " fill="#8D56FB" transform="translate(138,251)"/>
<path d="M0 0 C8.91254409 0.58787462 17.63778764 1.78608413 26.4453125 3.25 C27.79095344 3.47069499 29.13664748 3.69106637 30.48239136 3.91113281 C33.27456726 4.36877309 36.06618853 4.82961522 38.85742188 5.29296875 C42.43646536 5.88692587 46.01665044 6.47364839 49.59724617 7.0581665 C52.36338073 7.51035192 55.12897486 7.96577153 57.89440536 8.42224121 C59.85627671 8.74562598 61.81853233 9.06667673 63.78079224 9.38769531 C64.96317474 9.58459961 66.14555725 9.78150391 67.36376953 9.984375 C68.4067923 10.15678711 69.44981506 10.32919922 70.52444458 10.50683594 C73 11 73 11 75 12 C74.94921875 13.7734375 74.94921875 13.7734375 74 16 C59.72893463 25.36120754 41.67681217 21.60786242 25.98828125 18.41015625 C15.06360472 15.98025495 6.85088236 10.94518726 -1 3 C-0.67 2.01 -0.34 1.02 0 0 Z " fill="#8045F5" transform="translate(193,211)"/>
<path d="M0 0 C-0.28062219 3.19761597 -1.1212704 4.11763611 -3.4765625 6.40234375 C-4.51747437 7.2579266 -5.56745975 8.10255799 -6.625 8.9375 C-7.16898437 9.37698975 -7.71296875 9.81647949 -8.2734375 10.26928711 C-16.2703278 16.68702958 -20.89753561 20.02484624 -31.30078125 20.31640625 C-32.01421188 20.33718735 -32.72764252 20.35796844 -33.46269226 20.37937927 C-34.97645348 20.42257014 -36.49027707 20.46362096 -38.00415039 20.50268555 C-40.26660693 20.56131081 -42.52878274 20.62671381 -44.79101562 20.69335938 C-54.19660853 20.9595955 -63.59066485 21.05441918 -73 21 C-73.33 20.01 -73.66 19.02 -74 18 C-60.28264633 14.08443298 -46.48392672 10.52784542 -32.64501953 7.06860352 C-29.0810516 6.17649918 -25.51904422 5.27682752 -21.95703125 4.37695312 C-19.68240659 3.80683296 -17.40767111 3.23715471 -15.1328125 2.66796875 C-14.0724881 2.39929489 -13.0121637 2.13062103 -11.91970825 1.85380554 C-10.93702972 1.60967422 -9.9543512 1.36554291 -8.94189453 1.11401367 C-8.08129425 0.89815109 -7.22069397 0.68228851 -6.33401489 0.45988464 C-4 0 -4 0 0 0 Z " fill="#8A53F8" transform="translate(252,298)"/>
<path d="M0 0 C36.63 3.96 36.63 3.96 74 8 C74.495 9.98 74.495 9.98 75 12 C71.07916209 13.44599238 67.13701463 14.82198817 63.1875 16.1875 C62.08728516 16.59419922 60.98707031 17.00089844 59.85351562 17.41992188 C51.65137589 20.20235866 46.99439726 20.00202428 39 17 C37.4980731 16.49954322 35.99368667 16.00643618 34.48754883 15.51879883 C29.24973766 13.82084094 24.03101453 12.06870813 18.8125 10.3125 C16.98381798 9.6995892 15.15504266 9.08695669 13.32617188 8.47460938 C8.88303222 6.98627982 4.44117286 5.4941877 0 4 C0 2.68 0 1.36 0 0 Z " fill="#935EFC" transform="translate(35,234)"/>
<path d="M0 0 C0 7.36508752 -6.32047065 12.12990429 -11.15917969 17.25292969 C-16.1236609 21.93283385 -19.69990282 24.62533307 -26.671875 24.64453125 C-32.59960355 24.07277933 -38.32333516 22.78443064 -44 21 C-41.75444259 12.7673759 -41.75444259 12.7673759 -38.94921875 9.9140625 C-38.20285156 9.48867187 -37.45648438 9.06328125 -36.6875 8.625 C-35.57955078 7.96371094 -35.57955078 7.96371094 -34.44921875 7.2890625 C-33.64097656 6.86367187 -32.83273438 6.43828125 -32 6 C-30.69675781 5.22849609 -30.69675781 5.22849609 -29.3671875 4.44140625 C-24.80381036 2.48794202 -20.33732026 1.93475337 -15.4375 1.3125 C-14.50486328 1.18294922 -13.57222656 1.05339844 -12.61132812 0.91992188 C-8.36678665 0.34813404 -4.28913866 -0.06724881 0 0 Z " fill="#8A52F9" transform="translate(164,217)"/>
<path d="M0 0 C11.56313321 0.42905875 22.69134804 2.69207911 34 5 C31.55134861 8.25391258 29.32352499 10.63452739 25.9375 12.875 C19.16462816 17.92078952 14.73728563 25.11986742 10 32 C8.68 31.67 7.36 31.34 6 31 C6.68449219 29.44539063 6.68449219 29.44539063 7.3828125 27.859375 C7.9643578 26.48992962 8.54504228 25.12011847 9.125 23.75 C9.42792969 23.06808594 9.73085938 22.38617188 10.04296875 21.68359375 C11.68460539 17.86327309 11.68460539 17.86327309 11.53125 13.8125 C9.38706433 11.27448431 6.97987482 9.30966846 4.375 7.25 C3.37210938 6.45078125 2.36921875 5.6515625 1.3359375 4.828125 C0.56507812 4.22484375 -0.20578125 3.6215625 -1 3 C-0.67 2.01 -0.34 1.02 0 0 Z " fill="#9865FE" transform="translate(46,259)"/>
<path d="M0 0 C5.62532079 1.12506416 5.62532079 1.12506416 8.15625 4.5703125 C8.70410156 5.3025 9.25195312 6.0346875 9.81640625 6.7890625 C10.37199219 7.55992187 10.92757813 8.33078125 11.5 9.125 C12.05558594 9.87265625 12.61117188 10.6203125 13.18359375 11.390625 C14.80604142 13.58188374 16.40377053 15.78960415 18 18 C18.50144531 18.67514648 19.00289062 19.35029297 19.51953125 20.04589844 C23 24.77394366 23 24.77394366 23 27 C21.86304688 26.89300781 20.72609375 26.78601563 19.5546875 26.67578125 C10.47811923 25.93264154 2.77805876 25.94802019 -6.08203125 28.30859375 C-8.84691089 28.96372587 -11.1736281 29.13060868 -14 29 C-14 28.01 -14 27.02 -14 26 C-11.71070947 24.82845707 -9.41881638 23.66261926 -7.125 22.5 C-6.47402344 22.16613281 -5.82304687 21.83226562 -5.15234375 21.48828125 C-0.2265625 19 -0.2265625 19 2 19 C1.34 12.73 0.68 6.46 0 0 Z " fill="#9B68FF" transform="translate(14,237)"/>
<path d="M0 0 C0.495 1.485 0.495 1.485 1 3 C-8.15062153 13.72448808 -16.50352327 21.49818398 -31 23 C-33.48828125 22.08984375 -33.48828125 22.08984375 -35 21 C-34.27954914 19.62041325 -33.5480825 18.24657844 -32.8125 16.875 C-32.40644531 16.10929687 -32.00039063 15.34359375 -31.58203125 14.5546875 C-26.63521472 6.56649488 -22.96097986 4.78159444 -13.875 2.625 C-12.87339844 2.36589844 -11.87179688 2.10679687 -10.83984375 1.83984375 C-3.5875496 0 -3.5875496 0 0 0 Z " fill="#9966FF" transform="translate(43,281)"/>
<path d="M0 0 C0.99 0.33 1.98 0.66 3 1 C1.98227103 6.81139207 -1.77118883 11.08329021 -6 15 C-10.09567618 17.07900605 -14.22583293 18.15748335 -18.6875 19.1875 C-19.80189453 19.48462891 -20.91628906 19.78175781 -22.06445312 20.08789062 C-30.922401 22.34350947 -30.922401 22.34350947 -36 21 C-32.9543908 17.62799343 -29.92081541 15.70062689 -25.87890625 13.65234375 C-25.2971312 13.35437393 -24.71535614 13.05640411 -24.11595154 12.74940491 C-22.26841201 11.80480556 -20.41578057 10.87077725 -18.5625 9.9375 C-16.71390799 8.99859778 -14.86645618 8.05750894 -13.01976013 7.11488342 C-11.34271122 6.26010684 -9.66276571 5.41102031 -7.98266602 4.56225586 C-4.99348023 3.05699576 -4.99348023 3.05699576 -2.29663086 1.23657227 C-1.53874268 0.82850342 -0.78085449 0.42043457 0 0 Z " fill="#9C6BFD" transform="translate(102,297)"/>
<path d="M0 0 C5.21489744 0.5470757 10.42930622 1.09852936 15.64331055 1.65405273 C17.41727139 1.84243365 19.19135997 2.02961572 20.96557617 2.21557617 C23.51515651 2.48301467 26.06424703 2.75475531 28.61328125 3.02734375 C29.40712723 3.10967758 30.20097321 3.19201141 31.01887512 3.27684021 C34.16204025 3.61642523 36.99066808 3.99688936 40 5 C40 5.99 40 6.98 40 8 C38.15304147 8.70663602 36.29695865 9.38944442 34.4375 10.0625 C33.40496094 10.44535156 32.37242188 10.82820313 31.30859375 11.22265625 C23.91256794 12.96032937 17.00969358 9.83554016 10.0625 7.4375 C9.09248047 7.10814453 8.12246094 6.77878906 7.12304688 6.43945312 C4.74677616 5.6317552 2.37257031 4.81849052 0 4 C0 2.68 0 1.36 0 0 Z " fill="#9E6DFF" transform="translate(27,327)"/>
<path d="M0 0 C-0.76135081 4.94309855 -3.77669538 7.79667875 -7.2421875 11.1953125 C-11.42709806 13.93388003 -14.69325358 13.44813452 -19.49609375 12.73046875 C-22 12 -22 12 -24 10 C-21.26368725 5.26407409 -19.13854491 2.95264707 -14 1 C-9.30161253 -0.12352744 -4.80161778 -0.08278651 0 0 Z " fill="#9A67FF" transform="translate(64,306)"/>
<path d="M0 0 C0.99 0.33 1.98 0.66 3 1 C-7 11 -17 21 -27 31 C-26.66150761 25.83067792 -23.75665798 23.23628344 -20.21484375 19.82421875 C-19.63916153 19.25419632 -19.06347931 18.68417389 -18.47035217 18.09687805 C-16.63526509 16.28412437 -14.78674484 14.48579748 -12.9375 12.6875 C-11.68854041 11.45860922 -10.44048246 10.22880136 -9.19335938 8.99804688 C-6.13925431 5.98796886 -3.0730282 2.99075168 0 0 Z " fill="#A378F7" transform="translate(297,228)"/>
<path d="M0 0 C0 3 0 3 -1.19335938 4.53393555 C-1.73798828 5.062854 -2.28261719 5.59177246 -2.84375 6.13671875 C-3.72353516 7.00200195 -3.72353516 7.00200195 -4.62109375 7.88476562 C-5.24113281 8.47966797 -5.86117187 9.07457031 -6.5 9.6875 C-7.12003906 10.29400391 -7.74007812 10.90050781 -8.37890625 11.52539062 C-9.91264707 13.02373743 -11.45548198 14.51276493 -13 16 C-12.01 16.66 -11.02 17.32 -10 18 C-11.65 18 -13.3 18 -15 18 C-15 14 -15 14 -13.62304688 12.26074219 C-12.68041992 11.41237793 -12.68041992 11.41237793 -11.71875 10.546875 C-11.04199219 9.928125 -10.36523438 9.309375 -9.66796875 8.671875 C-8.95253906 8.03765625 -8.23710937 7.4034375 -7.5 6.75 C-6.42685547 5.77546875 -6.42685547 5.77546875 -5.33203125 4.78125 C-3.56324592 3.1775513 -1.78593592 1.58454315 0 0 Z " fill="#B08AFC" transform="translate(137,270)"/>
<path d="M0 0 C0 3 0 3 -1.4609375 4.82421875 C-2.09257812 5.43910156 -2.72421875 6.05398437 -3.375 6.6875 C-4.00148438 7.31011719 -4.62796875 7.93273437 -5.2734375 8.57421875 C-7 10 -7 10 -9 10 C-7.61811547 6.78956118 -6.07578097 4.95063635 -3.375 2.75 C-2.74335938 2.22921875 -2.11171875 1.7084375 -1.4609375 1.171875 C-0.73777344 0.59179688 -0.73777344 0.59179688 0 0 Z " fill="#9A6DF4" transform="translate(301,132)"/>
</svg>
